#pragma bank 255

#include "hUGEDriver.h"
#include <stddef.h>

BANKREF(bs_rpg_forest_bank)

static const unsigned char order_cnt = 20;

static const unsigned char P0[] = {
    DN(C_5,7,0x000),
    DN(___,0,0x000),
    DN(___,7,0x000),
    DN(___,0,0x000),
    DN(G_5,7,0x000),
    DN(___,0,0x000),
    DN(F_5,7,0x000),
    DN(___,0,0x000),
    DN(As5,7,0x000),
    DN(___,0,0x000),
    DN(G_5,7,0x000),
    DN(___,0,0x000),
    DN(F_5,7,0x000),
    DN(___,0,0x000),
    DN(G_5,7,0x000),
    DN(___,0,0x000),
    DN(As5,6,0x000),
    DN(___,0,0x000),
    DN(G_5,6,0x000),
    DN(___,0,0x000),
    DN(F_5,6,0x000),
    DN(___,0,0x000),
    DN(G_5,6,0x000),
    DN(___,0,0x000),
    DN(As5,5,0x000),
    DN(___,0,0x000),
    DN(G_5,5,0x000),
    DN(___,0,0x000),
    DN(F_5,5,0x000),
    DN(___,0,0x000),
    DN(G_5,5,0x000),
    DN(___,0,0x000),
    DN(___,0,0x000),
    DN(___,0,0x000),
    DN(___,0,0x000),
    DN(___,0,0x000),
    DN(___,0,0x000),
    DN(___,0,0x000),
    DN(___,0,0x000),
    DN(___,0,0x000),
    DN(___,0,0x000),
    DN(___,0,0x000),
    DN(___,0,0x000),
    DN(___,0,0x000),
    DN(___,0,0x000),
    DN(___,0,0x000),
    DN(___,0,0x000),
    DN(___,0,0x000),
    DN(___,0,0x000),
    DN(___,0,0x000),
    DN(___,0,0x000),
    DN(___,0,0x000),
    DN(___,0,0x000),
    DN(___,0,0x000),
    DN(___,0,0x000),
    DN(___,0,0x000),
    DN(___,0,0x000),
    DN(___,0,0x000),
    DN(___,0,0x000),
    DN(___,0,0x000),
    DN(___,0,0x000),
    DN(___,0,0x000),
    DN(___,0,0x000),
    DN(___,0,0x000),
};
static const unsigned char P1[] = {
    DN(D_6,9,0x000),
    DN(___,0,0x000),
    DN(C_5,8,0x000),
    DN(___,0,0x000),
    DN(___,8,0x000),
    DN(___,0,0x000),
    DN(G_5,8,0x000),
    DN(___,0,0x000),
    DN(F_5,8,0x000),
    DN(___,0,0x000),
    DN(As5,8,0x000),
    DN(___,0,0x000),
    DN(G_5,8,0x000),
    DN(___,0,0x000),
    DN(F_5,8,0x000),
    DN(___,0,0x000),
    DN(Ds5,4,0x000),
    DN(___,0,0x000),
    DN(D_5,4,0x000),
    DN(___,0,0x000),
    DN(As4,4,0x000),
    DN(___,0,0x000),
    DN(___,0,0x000),
    DN(___,0,0x000),
    DN(Ds5,4,0x000),
    DN(___,0,0x000),
    DN(D_5,4,0x000),
    DN(___,0,0x000),
    DN(F_5,4,0x000),
    DN(___,0,0x000),
    DN(G_5,4,0x000),
    DN(___,0,0x000),
    DN(C_5,4,0x000),
    DN(___,0,0x000),
    DN(___,0,0x000),
    DN(___,0,0x000),
    DN(___,0,0x000),
    DN(___,0,0x000),
    DN(___,0,0x000),
    DN(___,0,0x000),
    DN(___,0,0x000),
    DN(___,0,0x000),
    DN(___,0,0x000),
    DN(___,0,0x000),
    DN(C_5,4,0x000),
    DN(___,0,0x000),
    DN(D_5,4,0x000),
    DN(___,0,0x000),
    DN(Ds5,4,0x000),
    DN(___,0,0x000),
    DN(___,0,0x000),
    DN(___,0,0x000),
    DN(___,0,0x000),
    DN(___,0,0x000),
    DN(___,0,0x000),
    DN(___,0,0x000),
    DN(___,0,0x000),
    DN(___,0,0x000),
    DN(___,0,0x000),
    DN(___,0,0x000),
    DN(___,0,0x000),
    DN(___,0,0x000),
    DN(___,0,0x000),
    DN(___,0,0x000),
};
static const unsigned char P2[] = {
    DN(Ds5,5,0xC01),
    DN(___,0,0x000),
    DN(___,0,0xC03),
    DN(___,0,0x000),
    DN(___,0,0xC07),
    DN(___,0,0x000),
    DN(___,0,0xCFF),
    DN(___,0,0x000),
    DN(___,0,0xC07),
    DN(___,0,0x000),
    DN(___,0,0xC03),
    DN(___,0,0x000),
    DN(___,0,0xC01),
    DN(___,0,0x000),
    DN(___,0,0x000),
    DN(___,0,0x000),
    DN(D_5,5,0xC01),
    DN(___,0,0x000),
    DN(___,0,0xC03),
    DN(___,0,0x000),
    DN(___,0,0xC07),
    DN(___,0,0x000),
    DN(___,0,0xCFF),
    DN(___,0,0x000),
    DN(___,0,0xC07),
    DN(___,0,0x000),
    DN(___,0,0xC03),
    DN(___,0,0x000),
    DN(___,0,0xC01),
    DN(___,0,0x000),
    DN(___,0,0x000),
    DN(___,0,0x000),
    DN(C_5,5,0xC01),
    DN(___,0,0x000),
    DN(___,0,0xC03),
    DN(___,0,0x000),
    DN(___,0,0xC07),
    DN(___,0,0x000),
    DN(___,0,0xCFF),
    DN(___,0,0x000),
    DN(___,0,0xC07),
    DN(___,0,0x000),
    DN(___,0,0xC03),
    DN(___,0,0x000),
    DN(___,0,0xC01),
    DN(___,0,0x000),
    DN(___,0,0x000),
    DN(___,0,0x000),
    DN(___,0,0x000),
    DN(___,0,0x000),
    DN(___,0,0x000),
    DN(___,0,0x000),
    DN(___,0,0xC01),
    DN(___,0,0x000),
    DN(___,0,0xC03),
    DN(___,0,0x000),
    DN(___,0,0xC07),
    DN(___,0,0x000),
    DN(___,0,0xCFF),
    DN(___,0,0x000),
    DN(___,0,0xC07),
    DN(___,0,0x000),
    DN(___,0,0xC03),
    DN(___,0,0x000),
};
static const unsigned char P3[] = {
    DN(___,0,0x000),
    DN(___,0,0x000),
    DN(___,0,0x000),
    DN(___,0,0x000),
    DN(___,0,0x000),
    DN(___,0,0x000),
    DN(___,0,0x000),
    DN(___,0,0x000),
    DN(___,0,0x000),
    DN(___,0,0x000),
    DN(___,0,0x000),
    DN(___,0,0x000),
    DN(___,0,0x000),
    DN(___,0,0x000),
    DN(___,0,0x000),
    DN(___,0,0x000),
    DN(___,0,0x000),
    DN(___,0,0x000),
    DN(___,0,0x000),
    DN(___,0,0x000),
    DN(___,0,0x000),
    DN(___,0,0x000),
    DN(___,0,0x000),
    DN(___,0,0x000),
    DN(___,0,0x000),
    DN(___,0,0x000),
    DN(___,0,0x000),
    DN(___,0,0x000),
    DN(___,0,0x000),
    DN(___,0,0x000),
    DN(___,0,0x000),
    DN(___,0,0x000),
    DN(___,0,0x000),
    DN(___,0,0x000),
    DN(___,0,0x000),
    DN(___,0,0x000),
    DN(___,0,0x000),
    DN(___,0,0x000),
    DN(___,0,0x000),
    DN(___,0,0x000),
    DN(___,0,0x000),
    DN(___,0,0x000),
    DN(___,0,0x000),
    DN(___,0,0x000),
    DN(___,0,0x000),
    DN(___,0,0x000),
    DN(___,0,0x000),
    DN(___,0,0x000),
    DN(___,0,0x000),
    DN(___,0,0x000),
    DN(___,0,0x000),
    DN(___,0,0x000),
    DN(___,0,0x000),
    DN(___,0,0x000),
    DN(___,0,0x000),
    DN(___,0,0x000),
    DN(___,0,0x000),
    DN(___,0,0x000),
    DN(___,0,0x000),
    DN(___,0,0x000),
    DN(___,0,0x000),
    DN(___,0,0x000),
    DN(___,0,0x000),
    DN(___,0,0x000),
};
static const unsigned char P5[] = {
    DN(___,0,0x000),
    DN(___,0,0x000),
    DN(C_5,8,0x000),
    DN(___,0,0x000),
    DN(___,8,0x000),
    DN(___,0,0x000),
    DN(G_5,8,0x000),
    DN(___,0,0x000),
    DN(F_5,8,0x000),
    DN(___,0,0x000),
    DN(As5,8,0x000),
    DN(___,0,0x000),
    DN(G_5,8,0x000),
    DN(___,0,0x000),
    DN(F_5,8,0x000),
    DN(___,0,0x000),
    DN(D_5,4,0x000),
    DN(___,0,0x000),
    DN(Ds5,4,0x000),
    DN(___,0,0x000),
    DN(F_5,4,0x000),
    DN(___,0,0x000),
    DN(___,0,0x000),
    DN(___,0,0x000),
    DN(F_5,3,0x000),
    DN(___,0,0x000),
    DN(F_5,3,0x000),
    DN(___,0,0x000),
    DN(F_5,2,0x000),
    DN(___,0,0x000),
    DN(F_5,2,0x000),
    DN(___,0,0x000),
    DN(G_5,4,0x000),
    DN(___,0,0x000),
    DN(___,0,0x000),
    DN(___,0,0x000),
    DN(___,0,0x000),
    DN(___,0,0x000),
    DN(___,0,0x000),
    DN(___,0,0x000),
    DN(___,0,0x000),
    DN(___,0,0x000),
    DN(___,0,0x000),
    DN(___,0,0x000),
    DN(D_5,4,0x000),
    DN(___,0,0x000),
    DN(Ds5,4,0x000),
    DN(___,0,0x000),
    DN(C_5,4,0x000),
    DN(___,0,0x000),
    DN(___,0,0x000),
    DN(___,0,0x000),
    DN(___,0,0x000),
    DN(___,0,0x000),
    DN(___,0,0x000),
    DN(___,0,0x000),
    DN(___,0,0x000),
    DN(___,0,0x000),
    DN(___,0,0x000),
    DN(___,0,0x000),
    DN(___,0,0x000),
    DN(___,0,0x000),
    DN(___,0,0x000),
    DN(___,0,0x000),
};
static const unsigned char P18[] = {
    DN(As4,5,0xC01),
    DN(___,0,0x000),
    DN(___,0,0xC03),
    DN(___,0,0x000),
    DN(___,0,0xC07),
    DN(___,0,0x000),
    DN(___,0,0xCFF),
    DN(___,0,0x000),
    DN(___,0,0xC07),
    DN(___,0,0x000),
    DN(___,0,0xC03),
    DN(___,0,0x000),
    DN(___,0,0xC01),
    DN(___,0,0x000),
    DN(___,0,0x000),
    DN(___,0,0x000),
    DN(Ds4,5,0xC01),
    DN(___,0,0x000),
    DN(___,0,0xC03),
    DN(___,0,0x000),
    DN(___,0,0xC07),
    DN(___,0,0x000),
    DN(___,0,0xCFF),
    DN(___,0,0x000),
    DN(___,0,0xC07),
    DN(___,0,0x000),
    DN(___,0,0xC03),
    DN(___,0,0x000),
    DN(___,0,0xC01),
    DN(___,0,0x000),
    DN(___,0,0x000),
    DN(___,0,0x000),
    DN(Gs4,5,0xC01),
    DN(___,0,0x000),
    DN(___,0,0xC03),
    DN(___,0,0x000),
    DN(___,0,0xC07),
    DN(___,0,0x000),
    DN(___,0,0xCFF),
    DN(___,0,0x000),
    DN(___,0,0xC07),
    DN(___,0,0x000),
    DN(___,0,0xC03),
    DN(___,0,0x000),
    DN(___,0,0xC01),
    DN(___,0,0x000),
    DN(___,0,0x000),
    DN(___,0,0x000),
    DN(___,0,0x000),
    DN(___,0,0x000),
    DN(___,0,0x000),
    DN(___,0,0x000),
    DN(___,0,0xC01),
    DN(___,0,0x000),
    DN(___,0,0xC03),
    DN(___,0,0x000),
    DN(___,0,0xC07),
    DN(___,0,0x000),
    DN(___,0,0xCFF),
    DN(___,0,0x000),
    DN(___,0,0xC07),
    DN(___,0,0x000),
    DN(___,0,0xC03),
    DN(___,0,0x000),
};
static const unsigned char P27[] = {
    DN(___,0,0x000),
    DN(___,0,0x000),
    DN(___,0,0x000),
    DN(___,0,0x000),
    DN(___,0,0x000),
    DN(___,0,0x000),
    DN(___,0,0x000),
    DN(___,0,0x000),
    DN(___,0,0x000),
    DN(___,0,0x000),
    DN(___,0,0x000),
    DN(___,0,0x000),
    DN(___,0,0x000),
    DN(___,0,0x000),
    DN(___,0,0x000),
    DN(___,0,0x000),
    DN(___,0,0x000),
    DN(___,0,0x000),
    DN(___,0,0x000),
    DN(___,0,0x000),
    DN(___,0,0x000),
    DN(___,0,0x000),
    DN(___,0,0x000),
    DN(___,0,0x000),
    DN(___,0,0x000),
    DN(___,0,0x000),
    DN(___,0,0x000),
    DN(___,0,0x000),
    DN(___,0,0x000),
    DN(___,0,0x000),
    DN(___,0,0x000),
    DN(___,0,0x000),
    DN(___,0,0x000),
    DN(___,0,0x000),
    DN(___,0,0x000),
    DN(___,0,0x000),
    DN(___,0,0x000),
    DN(___,0,0x000),
    DN(___,0,0x000),
    DN(___,0,0x000),
    DN(___,0,0x000),
    DN(___,0,0x000),
    DN(___,0,0x000),
    DN(___,0,0x000),
    DN(___,0,0x000),
    DN(___,0,0x000),
    DN(___,0,0x000),
    DN(___,0,0x000),
    DN(___,0,0x000),
    DN(___,0,0x000),
    DN(___,0,0x000),
    DN(___,0,0x000),
    DN(___,0,0x000),
    DN(___,0,0x000),
    DN(___,0,0x000),
    DN(___,0,0x000),
    DN(___,0,0x000),
    DN(___,0,0x000),
    DN(Ds7,2,0x000),
    DN(___,0,0x000),
    DN(___,0,0x000),
    DN(___,0,0x000),
    DN(___,0,0x000),
    DN(___,0,0x000),
};
static const unsigned char P28[] = {
    DN(C_5,7,0x000),
    DN(___,0,0x000),
    DN(___,7,0x000),
    DN(___,0,0x000),
    DN(G_5,7,0x000),
    DN(___,0,0x000),
    DN(F_5,7,0x000),
    DN(___,0,0x000),
    DN(As5,7,0x000),
    DN(___,0,0x000),
    DN(G_5,7,0x000),
    DN(___,0,0x000),
    DN(F_5,7,0x000),
    DN(___,0,0x000),
    DN(G_5,7,0x000),
    DN(___,0,0x000),
    DN(As5,6,0x000),
    DN(___,0,0x000),
    DN(G_5,6,0x000),
    DN(___,0,0x000),
    DN(F_5,6,0x000),
    DN(___,0,0x000),
    DN(G_5,6,0x000),
    DN(___,0,0x000),
    DN(As5,5,0x000),
    DN(___,0,0x000),
    DN(G_5,5,0x000),
    DN(___,0,0x000),
    DN(F_5,5,0x000),
    DN(___,0,0x000),
    DN(G_5,5,0x000),
    DN(___,0,0x000),
    DN(___,0,0x000),
    DN(___,0,0x000),
    DN(___,0,0x000),
    DN(___,0,0x000),
    DN(___,0,0x000),
    DN(___,0,0x000),
    DN(___,0,0x000),
    DN(___,0,0x000),
    DN(Ds5,7,0x000),
    DN(___,0,0x000),
    DN(D_5,7,0x000),
    DN(___,0,0x000),
    DN(Ds5,7,0x000),
    DN(___,0,0x000),
    DN(F_5,7,0x000),
    DN(___,0,0x000),
    DN(Ds5,6,0x000),
    DN(___,0,0x000),
    DN(D_5,6,0x000),
    DN(___,0,0x000),
    DN(Ds5,6,0x000),
    DN(___,0,0x000),
    DN(F_5,6,0x000),
    DN(___,0,0x000),
    DN(Ds5,5,0x000),
    DN(___,0,0x000),
    DN(D_5,5,0x000),
    DN(___,0,0x000),
    DN(Ds5,5,0x000),
    DN(___,0,0x000),
    DN(F_5,5,0x000),
    DN(___,0,0x000),
};
static const unsigned char P29[] = {
    DN(C_6,9,0x000),
    DN(___,0,0x000),
    DN(C_5,8,0x000),
    DN(___,0,0x000),
    DN(___,8,0x000),
    DN(___,0,0x000),
    DN(G_5,8,0x000),
    DN(___,0,0x000),
    DN(Ds6,1,0x000),
    DN(___,0,0x000),
    DN(___,0,0x000),
    DN(___,0,0x000),
    DN(G_5,8,0x000),
    DN(___,0,0x000),
    DN(F_5,8,0x000),
    DN(___,0,0x000),
    DN(D_6,1,0x000),
    DN(___,0,0x000),
    DN(___,0,0x000),
    DN(___,0,0x000),
    DN(___,0,0x000),
    DN(___,0,0x000),
    DN(___,0,0x000),
    DN(___,0,0x000),
    DN(As5,1,0x000),
    DN(___,0,0x000),
    DN(___,0,0x000),
    DN(___,0,0x000),
    DN(___,0,0x000),
    DN(___,0,0x000),
    DN(___,0,0x000),
    DN(___,0,0x000),
    DN(C_6,1,0x000),
    DN(___,0,0x000),
    DN(___,0,0x000),
    DN(___,0,0x000),
    DN(___,0,0x000),
    DN(___,0,0x000),
    DN(___,0,0x000),
    DN(___,0,0x000),
    DN(___,0,0x000),
    DN(___,0,0x000),
    DN(Ds5,8,0x000),
    DN(___,0,0x000),
    DN(D_5,8,0x000),
    DN(___,0,0x000),
    DN(Ds5,8,0x000),
    DN(___,0,0x000),
    DN(As5,1,0x000),
    DN(___,0,0x000),
    DN(___,0,0x000),
    DN(___,0,0x000),
    DN(___,0,0x000),
    DN(___,0,0x000),
    DN(___,0,0x000),
    DN(___,0,0x000),
    DN(___,0,0x000),
    DN(___,0,0x000),
    DN(___,0,0x000),
    DN(___,0,0x000),
    DN(___,0,0x000),
    DN(___,0,0x000),
    DN(___,0,0x000),
    DN(___,0,0x000),
};
static const unsigned char P32[] = {
    DN(___,0,0xC00),
    DN(___,0,0x000),
    DN(___,0,0x000),
    DN(___,0,0x000),
    DN(___,0,0x000),
    DN(___,0,0x000),
    DN(___,0,0x000),
    DN(___,0,0x000),
    DN(___,0,0x000),
    DN(___,0,0x000),
    DN(___,0,0x000),
    DN(___,0,0x000),
    DN(___,0,0x000),
    DN(___,0,0x000),
    DN(___,0,0x000),
    DN(___,0,0x000),
    DN(___,0,0x000),
    DN(___,0,0x000),
    DN(___,0,0x000),
    DN(___,0,0x000),
    DN(___,0,0x000),
    DN(___,0,0x000),
    DN(___,0,0x000),
    DN(___,0,0x000),
    DN(___,0,0x000),
    DN(___,0,0x000),
    DN(___,0,0x000),
    DN(___,0,0x000),
    DN(___,0,0x000),
    DN(___,0,0x000),
    DN(___,0,0x000),
    DN(___,0,0x000),
    DN(___,0,0x000),
    DN(___,0,0x000),
    DN(___,0,0x000),
    DN(___,0,0x000),
    DN(___,0,0x000),
    DN(___,0,0x000),
    DN(___,0,0x000),
    DN(___,0,0x000),
    DN(___,0,0x000),
    DN(___,0,0x000),
    DN(___,0,0x000),
    DN(___,0,0x000),
    DN(___,0,0x000),
    DN(___,0,0x000),
    DN(___,0,0x000),
    DN(___,0,0x000),
    DN(___,0,0x000),
    DN(___,0,0x000),
    DN(___,0,0x000),
    DN(___,0,0x000),
    DN(___,0,0x000),
    DN(___,0,0x000),
    DN(___,0,0x000),
    DN(___,0,0x000),
    DN(___,0,0x000),
    DN(___,0,0x000),
    DN(___,0,0x000),
    DN(___,0,0x000),
    DN(___,0,0x000),
    DN(___,0,0x000),
    DN(___,0,0x000),
    DN(___,0,0x000),
};
static const unsigned char P34[] = {
    DN(Ds7,1,0x000),
    DN(___,0,0x000),
    DN(___,0,0x000),
    DN(___,0,0x000),
    DN(___,0,0x000),
    DN(___,0,0x000),
    DN(___,0,0x000),
    DN(___,0,0x000),
    DN(___,0,0x000),
    DN(___,0,0x000),
    DN(___,0,0x000),
    DN(___,0,0x000),
    DN(___,0,0x000),
    DN(___,0,0x000),
    DN(___,0,0x000),
    DN(___,0,0x000),
    DN(___,0,0x000),
    DN(___,0,0x000),
    DN(___,0,0x000),
    DN(___,0,0x000),
    DN(___,0,0x000),
    DN(___,0,0x000),
    DN(___,0,0x000),
    DN(___,0,0x000),
    DN(___,0,0x000),
    DN(___,0,0x000),
    DN(___,0,0x000),
    DN(___,0,0x000),
    DN(___,0,0x000),
    DN(___,0,0x000),
    DN(___,0,0x000),
    DN(___,0,0x000),
    DN(___,0,0x000),
    DN(___,0,0x000),
    DN(___,0,0x000),
    DN(___,0,0x000),
    DN(___,0,0x000),
    DN(___,0,0x000),
    DN(___,0,0x000),
    DN(___,0,0x000),
    DN(___,0,0x000),
    DN(___,0,0x000),
    DN(___,0,0x000),
    DN(___,0,0x000),
    DN(___,0,0x000),
    DN(___,0,0x000),
    DN(___,0,0x000),
    DN(___,0,0x000),
    DN(___,0,0x000),
    DN(___,0,0x000),
    DN(___,0,0x000),
    DN(___,0,0x000),
    DN(___,0,0x000),
    DN(___,0,0x000),
    DN(___,0,0x000),
    DN(___,0,0x000),
    DN(___,0,0x000),
    DN(___,0,0x000),
    DN(___,0,0x000),
    DN(___,0,0x000),
    DN(___,0,0x000),
    DN(___,0,0x000),
    DN(___,0,0x000),
    DN(___,0,0x000),
};
static const unsigned char P36[] = {
    DN(C_6,9,0x000),
    DN(___,0,0x000),
    DN(C_5,8,0x000),
    DN(___,0,0x000),
    DN(___,8,0x000),
    DN(___,0,0x000),
    DN(G_5,8,0x000),
    DN(___,0,0x000),
    DN(Ds6,1,0x000),
    DN(___,0,0x000),
    DN(___,0,0x000),
    DN(___,0,0x000),
    DN(G_5,8,0x000),
    DN(___,0,0x000),
    DN(F_5,8,0x000),
    DN(___,0,0x000),
    DN(F_6,1,0x000),
    DN(___,0,0x000),
    DN(___,0,0x000),
    DN(___,0,0x000),
    DN(___,0,0x000),
    DN(___,0,0x000),
    DN(___,0,0x000),
    DN(___,0,0x000),
    DN(As5,1,0x000),
    DN(___,0,0x000),
    DN(___,0,0x000),
    DN(___,0,0x000),
    DN(___,0,0x000),
    DN(___,0,0x000),
    DN(___,0,0x000),
    DN(___,0,0x000),
    DN(C_6,1,0x000),
    DN(___,0,0x000),
    DN(___,0,0x000),
    DN(___,0,0x000),
    DN(___,0,0x000),
    DN(___,0,0x000),
    DN(___,0,0x000),
    DN(___,0,0x000),
    DN(___,0,0x000),
    DN(___,0,0x000),
    DN(Ds5,8,0x000),
    DN(___,0,0x000),
    DN(D_5,8,0x000),
    DN(___,0,0x000),
    DN(Ds5,8,0x000),
    DN(___,0,0x000),
    DN(As5,1,0x000),
    DN(___,0,0x000),
    DN(___,0,0x000),
    DN(___,0,0x000),
    DN(___,0,0x000),
    DN(___,0,0x000),
    DN(___,0,0x000),
    DN(___,0,0x000),
    DN(___,0,0x000),
    DN(___,0,0x000),
    DN(___,0,0x000),
    DN(___,0,0x000),
    DN(___,0,0x000),
    DN(___,0,0x000),
    DN(___,0,0x000),
    DN(___,0,0x000),
};

static const unsigned char* const order1[] = {P0,P0,P0,P0,P0,P0,P28,P28,P28,P28};
static const unsigned char* const order2[] = {P5,P1,P5,P1,P1,P5,P29,P36,P29,P36};
static const unsigned char* const order3[] = {P2,P2,P2,P2,P18,P18,P32,P32,P32,P32};
static const unsigned char* const order4[] = {P3,P3,P3,P3,P3,P27,P34,P3,P3,P3};

static const hUGEDutyInstr_t duty_instruments[] = {
    {8,0,119,0,128},
    {8,64,65,0,192},
    {8,192,99,0,192},
    {8,192,10,0,128},
    {8,128,82,0,128},
    {8,128,98,0,128},
    {8,128,241,0,128},
    {8,128,145,0,128},
    {8,128,0,0,128},
    {8,128,240,0,128},
    {8,128,240,0,128},
    {8,128,240,0,128},
    {8,128,240,0,128},
    {8,128,240,0,128},
    {8,128,240,0,128},
};
static const hUGEWaveInstr_t wave_instruments[] = {
    {0,32,0,0,128},
    {0,32,1,0,128},
    {0,32,2,0,128},
    {0,32,3,0,128},
    {0,32,4,0,128},
    {0,32,5,0,128},
    {0,32,6,0,128},
    {0,32,7,0,128},
    {0,32,8,0,128},
    {0,32,9,0,128},
    {0,32,10,0,128},
    {0,32,11,0,128},
    {0,32,12,0,128},
    {0,32,13,0,128},
    {0,32,14,0,128},
};
static const hUGENoiseInstr_t noise_instruments[] = {
    {135,0,0,0,0},
    {15,0,0,0,0},
    {240,0,0,0,0},
    {240,0,0,0,0},
    {240,0,0,0,0},
    {240,0,0,0,0},
    {240,0,0,0,0},
    {240,0,0,0,0},
    {240,0,0,0,0},
    {240,0,0,0,0},
    {240,0,0,0,0},
    {240,0,0,0,0},
    {240,0,0,0,0},
    {240,0,0,0,0},
    {240,0,0,0,0},
};

static const unsigned char waves[] = {
    0,0,255,255,255,255,255,255,255,255,255,255,255,255,255,255,
    0,0,0,0,255,255,255,255,255,255,255,255,255,255,255,255,
    0,0,0,0,0,0,0,0,255,255,255,255,255,255,255,255,
    0,0,0,0,0,0,0,0,0,0,0,0,255,255,255,255,
    0,1,18,35,52,69,86,103,120,137,154,171,188,205,222,239,
    254,220,186,152,118,84,50,16,18,52,86,120,154,188,222,255,
    122,205,219,117,33,19,104,189,220,151,65,1,71,156,221,184,
    15,15,15,15,15,15,15,15,15,15,15,15,15,15,15,15,
    254,252,250,248,246,244,242,240,242,244,246,248,250,252,254,255,
    254,221,204,187,170,153,136,119,138,189,241,36,87,138,189,238,
    132,17,97,237,87,71,90,173,206,163,23,121,221,32,3,71,
    60,17,186,32,148,151,194,120,105,188,103,0,84,178,154,128,
    19,185,84,196,157,176,29,74,190,237,71,173,62,98,97,135,
    44,40,229,118,86,110,124,189,1,149,161,94,13,2,189,172,
    141,186,92,144,116,101,237,74,131,160,229,45,30,11,141,137,
    107,101,234,186,190,157,62,88,60,217,122,26,178,64,177,91,
};

const hUGESong_t bs_rpg_forest = {7, &order_cnt, order1, order2, order3,order4, duty_instruments, wave_instruments, noise_instruments, NULL, waves};
