#pragma bank 255

#include "hUGEDriver.h"
#include <stddef.h>

BANKREF(music_day_bank)

static const unsigned char order_cnt = 24;

static const unsigned char P0[] = {
    DN(E_5,2,0x000),
    DN(___,0,0x000),
    DN(___,0,0x000),
    DN(___,0,0x000),
    DN(G_5,2,0x000),
    DN(___,0,0x000),
    DN(D_5,2,0x000),
    DN(___,0,0x000),
    DN(___,0,0x000),
    DN(___,0,0x000),
    DN(C_5,2,0x000),
    DN(___,0,0x000),
    DN(___,0,0x000),
    DN(___,0,0x000),
    DN(C_5,2,0x000),
    DN(___,0,0x000),
    DN(___,0,0x000),
    DN(___,0,0x000),
    DN(C_5,2,0x000),
    DN(___,0,0x000),
    DN(E_5,2,0x000),
    DN(___,0,0x000),
    DN(___,0,0x000),
    DN(___,0,0x000),
    DN(C_5,2,0x000),
    DN(___,0,0x000),
    DN(___,0,0x000),
    DN(___,0,0x000),
    DN(E_5,2,0x000),
    DN(___,0,0x000),
    DN(C_5,2,0x000),
    DN(___,0,0x000),
    DN(F_5,2,0x000),
    DN(___,0,0x000),
    DN(___,0,0x000),
    DN(___,0,0x000),
    DN(F_5,2,0x000),
    DN(___,0,0x000),
    DN(E_5,2,0x000),
    DN(___,0,0x000),
    DN(___,0,0x000),
    DN(___,0,0x000),
    DN(E_5,2,0x000),
    DN(___,0,0x000),
    DN(___,0,0x000),
    DN(___,0,0x000),
    DN(B_4,2,0x000),
    DN(___,0,0x000),
    DN(___,0,0x000),
    DN(___,0,0x000),
    DN(B_4,2,0x000),
    DN(___,0,0x000),
    DN(F_5,2,0x000),
    DN(___,0,0x000),
    DN(___,0,0x000),
    DN(___,0,0x000),
    DN(B_4,2,0x000),
    DN(___,0,0x000),
    DN(B_4,2,0x000),
    DN(___,0,0x000),
    DN(B_4,2,0x000),
    DN(___,0,0x000),
    DN(___,0,0x000),
    DN(___,0,0x000),
};
static const unsigned char P1[] = {
    DN(C_5,1,0x000),
    DN(___,0,0x000),
    DN(___,0,0x000),
    DN(___,0,0x000),
    DN(E_5,1,0x000),
    DN(___,0,0x000),
    DN(B_4,1,0x000),
    DN(___,0,0x000),
    DN(___,0,0x000),
    DN(___,0,0x000),
    DN(E_5,1,0x000),
    DN(___,0,0x000),
    DN(___,0,0x000),
    DN(___,0,0x000),
    DN(A_4,1,0x000),
    DN(___,0,0x000),
    DN(___,0,0x000),
    DN(___,0,0x000),
    DN(A_4,1,0x000),
    DN(___,0,0x000),
    DN(C_5,1,0x000),
    DN(___,0,0x000),
    DN(___,0,0x000),
    DN(___,0,0x000),
    DN(A_4,1,0x000),
    DN(___,0,0x000),
    DN(___,0,0x000),
    DN(___,0,0x000),
    DN(G_4,1,0x000),
    DN(___,0,0x000),
    DN(F_4,1,0x000),
    DN(___,0,0x000),
    DN(D_5,1,0x000),
    DN(___,0,0x000),
    DN(___,0,0x000),
    DN(___,0,0x000),
    DN(F_5,1,0x000),
    DN(___,0,0x000),
    DN(Cs5,1,0x000),
    DN(___,0,0x000),
    DN(___,0,0x000),
    DN(___,0,0x000),
    DN(F_5,1,0x000),
    DN(___,0,0x000),
    DN(___,0,0x000),
    DN(___,0,0x000),
    DN(D_5,1,0x000),
    DN(___,0,0x000),
    DN(___,0,0x000),
    DN(___,0,0x000),
    DN(D_5,1,0x000),
    DN(___,0,0x000),
    DN(D_5,1,0x000),
    DN(___,0,0x000),
    DN(___,0,0x000),
    DN(___,0,0x000),
    DN(D_5,1,0x000),
    DN(___,0,0x000),
    DN(D_5,1,0x000),
    DN(___,0,0x000),
    DN(D_5,1,0x000),
    DN(___,0,0x000),
    DN(___,0,0x000),
    DN(___,0,0x000),
};
static const unsigned char P2[] = {
    DN(C_4,1,0x000),
    DN(___,0,0x000),
    DN(___,0,0xC07),
    DN(___,0,0x000),
    DN(___,0,0x000),
    DN(___,0,0x000),
    DN(C_4,1,0x000),
    DN(___,0,0x000),
    DN(E_4,1,0x000),
    DN(___,0,0x000),
    DN(___,0,0xC07),
    DN(___,0,0x000),
    DN(___,0,0x000),
    DN(___,0,0x000),
    DN(C_4,1,0x000),
    DN(___,0,0x000),
    DN(___,0,0xC07),
    DN(___,0,0x000),
    DN(C_4,1,0x000),
    DN(___,0,0x000),
    DN(___,0,0xC07),
    DN(___,0,0x000),
    DN(C_4,1,0x000),
    DN(___,0,0x000),
    DN(E_4,1,0x000),
    DN(___,0,0xC07),
    DN(E_4,1,0x000),
    DN(___,0,0xC07),
    DN(E_4,1,0x000),
    DN(___,0,0xC07),
    DN(___,0,0x000),
    DN(___,0,0x000),
    DN(D_4,1,0x000),
    DN(___,0,0x000),
    DN(___,0,0x000),
    DN(___,0,0x000),
    DN(A_3,1,0x000),
    DN(___,0,0x000),
    DN(G_3,1,0xC07),
    DN(___,0,0x000),
    DN(D_4,1,0x000),
    DN(___,0,0x000),
    DN(F_4,1,0x000),
    DN(___,0,0x000),
    DN(A_3,1,0xC07),
    DN(___,0,0x000),
    DN(D_4,1,0x000),
    DN(___,0,0x000),
    DN(___,0,0xC07),
    DN(___,0,0x000),
    DN(D_4,1,0x000),
    DN(___,0,0x000),
    DN(F_4,1,0x000),
    DN(___,0,0x000),
    DN(___,0,0xC07),
    DN(___,0,0x000),
    DN(D_4,1,0x000),
    DN(___,0,0xC07),
    DN(D_4,1,0x000),
    DN(___,0,0xC07),
    DN(D_4,1,0x000),
    DN(___,0,0xC07),
    DN(D_4,1,0x000),
    DN(___,0,0x000),
};
static const unsigned char P3[] = {
    DN(___,0,0xF08),
    DN(___,0,0x000),
    DN(___,0,0x000),
    DN(___,0,0x000),
    DN(___,0,0x000),
    DN(___,0,0x000),
    DN(___,0,0x000),
    DN(___,0,0x000),
    DN(___,0,0x000),
    DN(___,0,0x000),
    DN(___,0,0x000),
    DN(___,0,0x000),
    DN(___,0,0x000),
    DN(___,0,0x000),
    DN(___,0,0x000),
    DN(___,0,0x000),
    DN(___,0,0xF09),
    DN(___,0,0xF08),
    DN(___,0,0xF09),
    DN(___,0,0xF08),
    DN(___,0,0xF09),
    DN(___,0,0xF08),
    DN(___,0,0xF09),
    DN(___,0,0xF08),
    DN(___,0,0xF09),
    DN(___,0,0xF08),
    DN(___,0,0xF09),
    DN(___,0,0xF08),
    DN(___,0,0xF09),
    DN(___,0,0xF08),
    DN(___,0,0xF09),
    DN(___,0,0xF08),
    DN(___,0,0xF09),
    DN(___,0,0xF08),
    DN(___,0,0xF09),
    DN(___,0,0xF08),
    DN(___,0,0xF09),
    DN(___,0,0x000),
    DN(___,0,0x000),
    DN(___,0,0x000),
    DN(___,0,0x000),
    DN(___,0,0x000),
    DN(___,0,0x000),
    DN(___,0,0x000),
    DN(___,0,0xF09),
    DN(___,0,0x000),
    DN(___,0,0x000),
    DN(___,0,0x000),
    DN(___,0,0xF09),
    DN(___,0,0xF0A),
    DN(___,0,0xF09),
    DN(___,0,0xF0A),
    DN(___,0,0xF0A),
    DN(___,0,0x000),
    DN(___,0,0x000),
    DN(___,0,0x000),
    DN(___,0,0x000),
    DN(___,0,0x000),
    DN(___,0,0xF0B),
    DN(___,0,0x000),
    DN(___,0,0xF0C),
    DN(___,0,0x000),
    DN(___,0,0x000),
    DN(___,0,0xF0E),
};
static const unsigned char P7[] = {
    DN(D_8,3,0xF08),
    DN(___,0,0x000),
    DN(D_8,1,0x000),
    DN(___,0,0x000),
    DN(D_8,2,0x000),
    DN(___,0,0x000),
    DN(D_8,1,0x000),
    DN(___,0,0x000),
    DN(D_8,1,0x000),
    DN(___,0,0x000),
    DN(D_8,2,0x000),
    DN(___,0,0x000),
    DN(D_8,1,0x000),
    DN(___,0,0x000),
    DN(D_8,1,0x000),
    DN(___,0,0x000),
    DN(D_8,2,0x000),
    DN(___,0,0x000),
    DN(D_8,1,0x000),
    DN(___,0,0x000),
    DN(D_8,1,0x000),
    DN(___,0,0x000),
    DN(D_8,2,0x000),
    DN(___,0,0x000),
    DN(D_8,1,0x000),
    DN(___,0,0x000),
    DN(D_8,1,0x000),
    DN(___,0,0x000),
    DN(Ds8,3,0x000),
    DN(___,0,0x000),
    DN(Ds8,3,0x000),
    DN(___,0,0x000),
    DN(D_8,3,0x000),
    DN(___,0,0x000),
    DN(D_8,1,0x000),
    DN(___,0,0x000),
    DN(D_8,2,0x000),
    DN(___,0,0x000),
    DN(D_8,1,0x000),
    DN(___,0,0x000),
    DN(D_8,1,0x000),
    DN(___,0,0x000),
    DN(D_8,2,0x000),
    DN(___,0,0x000),
    DN(D_8,1,0x000),
    DN(___,0,0x000),
    DN(D_8,1,0x000),
    DN(___,0,0x000),
    DN(D_8,2,0x000),
    DN(___,0,0x000),
    DN(D_8,1,0x000),
    DN(___,0,0x000),
    DN(D_8,1,0x000),
    DN(___,0,0x000),
    DN(D_8,2,0x000),
    DN(___,0,0x000),
    DN(D_8,1,0x000),
    DN(___,0,0x000),
    DN(D_8,1,0x000),
    DN(___,0,0x000),
    DN(Ds8,3,0x000),
    DN(___,0,0x000),
    DN(Ds8,3,0x000),
    DN(___,0,0x000),
};
static const unsigned char P8[] = {
    DN(D_5,3,0x107),
    DN(___,0,0x000),
    DN(___,0,0x000),
    DN(___,0,0x000),
    DN(C_5,3,0x000),
    DN(___,0,0x000),
    DN(D_5,2,0x000),
    DN(___,0,0x000),
    DN(___,0,0x000),
    DN(___,0,0x000),
    DN(G_4,3,0x000),
    DN(___,0,0x000),
    DN(C_5,3,0x000),
    DN(___,0,0x000),
    DN(D_5,3,0x000),
    DN(___,0,0x000),
    DN(E_5,3,0x000),
    DN(___,0,0x000),
    DN(D_5,3,0x000),
    DN(___,0,0x000),
    DN(C_5,3,0x000),
    DN(___,0,0x000),
    DN(G_5,3,0x000),
    DN(___,0,0x000),
    DN(C_5,2,0x000),
    DN(___,0,0x000),
    DN(E_5,3,0x000),
    DN(___,0,0x000),
    DN(E_5,2,0x000),
    DN(___,0,0x000),
    DN(C_5,2,0x000),
    DN(___,0,0x000),
    DN(F_5,3,0x000),
    DN(___,0,0x000),
    DN(___,0,0x000),
    DN(___,0,0x000),
    DN(F_5,3,0x000),
    DN(___,0,0x000),
    DN(E_5,3,0x000),
    DN(___,0,0x000),
    DN(___,0,0x000),
    DN(___,0,0x000),
    DN(F_5,3,0x000),
    DN(___,0,0x000),
    DN(E_5,3,0x000),
    DN(___,0,0x000),
    DN(D_5,3,0x000),
    DN(___,0,0x000),
    DN(___,0,0x000),
    DN(___,0,0x000),
    DN(B_4,2,0x000),
    DN(___,0,0x000),
    DN(F_5,2,0x000),
    DN(___,0,0x000),
    DN(___,0,0x000),
    DN(___,0,0x000),
    DN(D_5,3,0x000),
    DN(___,0,0x000),
    DN(B_4,2,0x000),
    DN(___,0,0x000),
    DN(C_5,3,0x000),
    DN(___,0,0x000),
    DN(B_4,3,0x000),
    DN(___,0,0x000),
};
static const unsigned char P11[] = {
    DN(D_8,3,0x000),
    DN(___,0,0x000),
    DN(D_8,1,0x000),
    DN(___,0,0x000),
    DN(D_8,2,0x000),
    DN(___,0,0x000),
    DN(D_8,1,0x000),
    DN(___,0,0x000),
    DN(D_8,1,0x000),
    DN(___,0,0x000),
    DN(D_8,2,0x000),
    DN(___,0,0x000),
    DN(D_8,1,0x000),
    DN(___,0,0x000),
    DN(D_8,1,0x000),
    DN(___,0,0x000),
    DN(D_8,2,0x000),
    DN(___,0,0x000),
    DN(D_8,1,0x000),
    DN(___,0,0x000),
    DN(D_8,1,0x000),
    DN(___,0,0x000),
    DN(D_8,2,0x000),
    DN(___,0,0x000),
    DN(D_8,1,0x000),
    DN(___,0,0x000),
    DN(D_8,1,0x000),
    DN(___,0,0x000),
    DN(Ds8,3,0x000),
    DN(___,0,0x000),
    DN(Ds8,3,0x000),
    DN(___,0,0x000),
    DN(D_8,3,0x000),
    DN(___,0,0x000),
    DN(D_8,1,0x000),
    DN(___,0,0x000),
    DN(D_8,2,0x000),
    DN(___,0,0x000),
    DN(D_8,1,0x000),
    DN(___,0,0x000),
    DN(D_8,1,0x000),
    DN(___,0,0x000),
    DN(D_8,2,0x000),
    DN(___,0,0x000),
    DN(D_8,1,0x000),
    DN(___,0,0x000),
    DN(D_8,1,0x000),
    DN(___,0,0x000),
    DN(D_8,2,0x000),
    DN(___,0,0x000),
    DN(D_8,1,0x000),
    DN(___,0,0x000),
    DN(D_8,1,0x000),
    DN(___,0,0x000),
    DN(D_8,2,0x000),
    DN(___,0,0x000),
    DN(D_8,1,0x000),
    DN(___,0,0x000),
    DN(D_8,1,0x000),
    DN(___,0,0x000),
    DN(Ds8,3,0x000),
    DN(___,0,0x000),
    DN(Ds8,3,0x000),
    DN(___,0,0x000),
};
static const unsigned char P12[] = {
    DN(D_5,3,0x107),
    DN(___,0,0x000),
    DN(___,0,0x000),
    DN(___,0,0x000),
    DN(C_5,3,0x000),
    DN(___,0,0x000),
    DN(D_5,2,0x000),
    DN(___,0,0x000),
    DN(___,0,0x000),
    DN(___,0,0x000),
    DN(E_5,3,0x000),
    DN(___,0,0x000),
    DN(D_5,3,0x000),
    DN(___,0,0x000),
    DN(C_5,3,0x000),
    DN(___,0,0x000),
    DN(E_5,3,0x000),
    DN(___,0,0x000),
    DN(D_5,3,0x000),
    DN(___,0,0x000),
    DN(C_5,3,0x000),
    DN(___,0,0x000),
    DN(G_5,3,0x000),
    DN(___,0,0x000),
    DN(C_5,2,0x000),
    DN(___,0,0x000),
    DN(G_5,3,0x000),
    DN(___,0,0x000),
    DN(A_5,3,0x000),
    DN(___,0,0x000),
    DN(C_5,2,0x000),
    DN(___,0,0x000),
    DN(F_5,3,0x000),
    DN(___,0,0x000),
    DN(G_5,3,0x000),
    DN(___,0,0x000),
    DN(F_5,3,0x000),
    DN(___,0,0x000),
    DN(E_5,3,0x000),
    DN(___,0,0x000),
    DN(F_5,3,0xE00),
    DN(___,0,0x000),
    DN(E_5,3,0x000),
    DN(___,0,0x000),
    DN(F_5,3,0x000),
    DN(___,0,0x000),
    DN(D_5,3,0x000),
    DN(___,0,0x000),
    DN(___,0,0x000),
    DN(___,0,0x000),
    DN(B_4,2,0x000),
    DN(___,0,0x000),
    DN(F_5,2,0x000),
    DN(___,0,0x000),
    DN(___,0,0x000),
    DN(___,0,0x000),
    DN(D_5,3,0x000),
    DN(___,0,0x000),
    DN(B_4,2,0x000),
    DN(___,0,0x000),
    DN(C_5,3,0x000),
    DN(___,0,0x000),
    DN(B_4,3,0x000),
    DN(___,0,0x000),
};
static const unsigned char P16[] = {
    DN(A_4,3,0x000),
    DN(___,0,0x000),
    DN(___,0,0x000),
    DN(___,0,0x000),
    DN(E_5,2,0x000),
    DN(___,0,0x000),
    DN(G_4,3,0x000),
    DN(___,0,0x000),
    DN(A_4,3,0x000),
    DN(___,0,0x000),
    DN(B_4,3,0x000),
    DN(___,0,0x000),
    DN(C_5,3,0x000),
    DN(___,0,0x000),
    DN(E_5,3,0x000),
    DN(___,0,0x000),
    DN(___,0,0x000),
    DN(___,0,0x000),
    DN(___,0,0x000),
    DN(___,0,0x000),
    DN(E_5,2,0x000),
    DN(___,0,0x000),
    DN(___,0,0x000),
    DN(___,0,0x000),
    DN(D_5,3,0x000),
    DN(___,0,0x000),
    DN(___,0,0x000),
    DN(___,0,0x000),
    DN(C_5,3,0x000),
    DN(___,0,0x000),
    DN(___,0,0x000),
    DN(___,0,0x000),
    DN(B_4,3,0x000),
    DN(___,0,0x000),
    DN(___,0,0x000),
    DN(___,0,0x000),
    DN(___,0,0x000),
    DN(___,0,0x000),
    DN(G_4,3,0x000),
    DN(___,0,0x000),
    DN(A_4,3,0x000),
    DN(___,0,0x000),
    DN(As4,3,0x000),
    DN(___,0,0x000),
    DN(B_4,3,0x000),
    DN(___,0,0x000),
    DN(D_5,3,0x000),
    DN(___,0,0x000),
    DN(___,0,0x000),
    DN(___,0,0x000),
    DN(___,0,0x000),
    DN(___,0,0x000),
    DN(D_5,2,0x000),
    DN(___,0,0x000),
    DN(___,0,0x000),
    DN(___,0,0x000),
    DN(C_5,2,0x000),
    DN(___,0,0x000),
    DN(___,0,0x000),
    DN(___,0,0x000),
    DN(B_4,2,0x000),
    DN(___,0,0x000),
    DN(___,0,0x000),
    DN(___,0,0x000),
};
static const unsigned char P17[] = {
    DN(A_4,1,0x000),
    DN(___,0,0x000),
    DN(___,0,0x000),
    DN(___,0,0x000),
    DN(C_5,1,0x000),
    DN(___,0,0x000),
    DN(Gs4,1,0x000),
    DN(___,0,0x000),
    DN(___,0,0x000),
    DN(___,0,0x000),
    DN(C_5,1,0x000),
    DN(___,0,0x000),
    DN(___,0,0x000),
    DN(___,0,0x000),
    DN(G_4,1,0x000),
    DN(___,0,0x000),
    DN(___,0,0x000),
    DN(___,0,0x000),
    DN(G_4,1,0x000),
    DN(___,0,0x000),
    DN(C_5,1,0x000),
    DN(___,0,0x000),
    DN(___,0,0x000),
    DN(___,0,0x000),
    DN(Fs4,1,0x000),
    DN(___,0,0x000),
    DN(___,0,0x000),
    DN(___,0,0x000),
    DN(E_4,1,0x000),
    DN(___,0,0x000),
    DN(___,0,0x000),
    DN(___,0,0x000),
    DN(B_4,1,0x000),
    DN(___,0,0x000),
    DN(___,0,0x000),
    DN(___,0,0x000),
    DN(D_5,1,0x000),
    DN(___,0,0x000),
    DN(B_4,1,0x000),
    DN(___,0,0x000),
    DN(___,0,0x000),
    DN(___,0,0x000),
    DN(B_4,1,0x000),
    DN(___,0,0x000),
    DN(D_5,1,0x000),
    DN(___,0,0x000),
    DN(G_4,1,0x000),
    DN(___,0,0x000),
    DN(___,0,0x000),
    DN(___,0,0x000),
    DN(G_4,1,0x000),
    DN(___,0,0x000),
    DN(B_4,1,0x000),
    DN(___,0,0x000),
    DN(___,0,0x000),
    DN(___,0,0x000),
    DN(A_4,1,0x000),
    DN(___,0,0x000),
    DN(___,0,0x000),
    DN(___,0,0x000),
    DN(G_4,1,0x000),
    DN(___,0,0x000),
    DN(___,0,0x000),
    DN(___,0,0x000),
};
static const unsigned char P18[] = {
    DN(A_3,1,0x000),
    DN(___,0,0x000),
    DN(___,0,0xC07),
    DN(___,0,0x000),
    DN(___,0,0x000),
    DN(___,0,0x000),
    DN(A_3,1,0x000),
    DN(___,0,0x000),
    DN(E_4,1,0x000),
    DN(___,0,0xC07),
    DN(E_4,1,0x000),
    DN(___,0,0xC07),
    DN(E_4,1,0x000),
    DN(___,0,0x000),
    DN(___,0,0x000),
    DN(___,0,0x000),
    DN(A_3,1,0x000),
    DN(___,0,0x000),
    DN(___,0,0xC07),
    DN(___,0,0x000),
    DN(___,0,0x000),
    DN(___,0,0x000),
    DN(A_3,1,0x000),
    DN(___,0,0x000),
    DN(___,0,0xC07),
    DN(___,0,0x000),
    DN(___,0,0x000),
    DN(___,0,0x000),
    DN(___,0,0x000),
    DN(___,0,0x000),
    DN(___,0,0x000),
    DN(___,0,0x000),
    DN(G_3,1,0x000),
    DN(___,0,0x000),
    DN(___,0,0xC07),
    DN(___,0,0x000),
    DN(___,0,0x000),
    DN(___,0,0x000),
    DN(G_3,1,0x000),
    DN(___,0,0x000),
    DN(D_4,1,0x000),
    DN(___,0,0xC07),
    DN(D_4,1,0x000),
    DN(___,0,0xC07),
    DN(D_4,1,0x000),
    DN(___,0,0x000),
    DN(___,0,0x000),
    DN(___,0,0x000),
    DN(G_3,1,0x000),
    DN(___,0,0x000),
    DN(___,0,0xC07),
    DN(___,0,0x000),
    DN(___,0,0x000),
    DN(___,0,0x000),
    DN(G_3,1,0x000),
    DN(___,0,0x000),
    DN(___,0,0xC07),
    DN(___,0,0x000),
    DN(___,0,0x000),
    DN(___,0,0x000),
    DN(G_3,1,0x000),
    DN(___,0,0x000),
    DN(Gs3,1,0x000),
    DN(___,0,0x000),
};
static const unsigned char P19[] = {
    DN(D_8,3,0xF08),
    DN(___,0,0x000),
    DN(D_8,1,0x000),
    DN(___,0,0x000),
    DN(D_8,2,0x000),
    DN(___,0,0x000),
    DN(D_8,1,0x000),
    DN(___,0,0x000),
    DN(D_8,1,0x000),
    DN(___,0,0x000),
    DN(D_8,2,0x000),
    DN(___,0,0x000),
    DN(D_8,1,0x000),
    DN(___,0,0x000),
    DN(D_8,1,0x000),
    DN(___,0,0x000),
    DN(D_8,2,0x000),
    DN(___,0,0x000),
    DN(D_8,1,0x000),
    DN(___,0,0x000),
    DN(D_8,1,0x000),
    DN(___,0,0x000),
    DN(Ds8,3,0x000),
    DN(___,0,0x000),
    DN(D_8,1,0x000),
    DN(___,0,0x000),
    DN(D_8,1,0x000),
    DN(___,0,0x000),
    DN(Ds8,3,0x000),
    DN(___,0,0x000),
    DN(Ds8,3,0x000),
    DN(___,0,0x000),
    DN(D_8,3,0x000),
    DN(___,0,0x000),
    DN(D_8,1,0x000),
    DN(___,0,0x000),
    DN(D_8,2,0x000),
    DN(___,0,0x000),
    DN(D_8,1,0x000),
    DN(___,0,0x000),
    DN(D_8,1,0x000),
    DN(___,0,0x000),
    DN(D_8,2,0x000),
    DN(___,0,0x000),
    DN(D_8,1,0x000),
    DN(___,0,0x000),
    DN(D_8,1,0x000),
    DN(___,0,0x000),
    DN(D_8,2,0x000),
    DN(___,0,0x000),
    DN(D_8,1,0x000),
    DN(___,0,0x000),
    DN(D_8,1,0x000),
    DN(___,0,0x000),
    DN(D_8,2,0x000),
    DN(___,0,0x000),
    DN(D_8,1,0x000),
    DN(___,0,0x000),
    DN(D_8,1,0x000),
    DN(___,0,0x000),
    DN(Ds8,3,0x000),
    DN(___,0,0x000),
    DN(Ds8,3,0x000),
    DN(___,0,0x000),
};
static const unsigned char P20[] = {
    DN(E_5,3,0x000),
    DN(___,0,0x000),
    DN(___,0,0x000),
    DN(___,0,0x000),
    DN(___,0,0x000),
    DN(___,0,0x000),
    DN(D_5,3,0xC0A),
    DN(___,0,0x000),
    DN(D_5,3,0x000),
    DN(___,0,0x000),
    DN(___,0,0x000),
    DN(___,0,0x000),
    DN(___,0,0x000),
    DN(___,0,0x000),
    DN(C_5,3,0x000),
    DN(___,0,0x000),
    DN(C_5,3,0x108),
    DN(___,0,0x000),
    DN(___,0,0x000),
    DN(___,0,0x000),
    DN(___,0,0x000),
    DN(___,0,0x000),
    DN(C_5,3,0x000),
    DN(___,0,0x000),
    DN(A_4,3,0x000),
    DN(___,0,0x000),
    DN(___,0,0x000),
    DN(___,0,0x000),
    DN(G_4,3,0x000),
    DN(___,0,0x000),
    DN(___,0,0x000),
    DN(___,0,0x000),
    DN(G_5,3,0x000),
    DN(___,0,0x000),
    DN(E_5,3,0x000),
    DN(___,0,0x000),
    DN(D_5,3,0x000),
    DN(___,0,0x000),
    DN(C_5,3,0x000),
    DN(___,0,0x000),
    DN(___,0,0x000),
    DN(___,0,0x000),
    DN(Cs5,3,0x000),
    DN(___,0,0x000),
    DN(D_5,3,0x000),
    DN(___,0,0x000),
    DN(G_5,3,0x000),
    DN(___,0,0x000),
    DN(___,0,0x000),
    DN(___,0,0x000),
    DN(___,0,0x000),
    DN(___,0,0x000),
    DN(___,0,0x000),
    DN(___,0,0x000),
    DN(___,0,0x000),
    DN(___,0,0x000),
    DN(G_4,3,0x000),
    DN(___,0,0x000),
    DN(G_4,3,0x000),
    DN(___,0,0x000),
    DN(G_4,3,0x000),
    DN(___,0,0x000),
    DN(___,0,0x000),
    DN(___,0,0x000),
};
static const unsigned char P24[] = {
    DN(G_5,4,0x000),
    DN(___,0,0x000),
    DN(E_5,4,0x000),
    DN(___,0,0x000),
    DN(D_5,4,0x000),
    DN(___,0,0x000),
    DN(C_5,4,0x000),
    DN(___,0,0x000),
    DN(D_5,4,0x000),
    DN(___,0,0x000),
    DN(E_5,4,0x000),
    DN(___,0,0x000),
    DN(G_5,4,0x000),
    DN(___,0,0x000),
    DN(E_5,4,0x000),
    DN(___,0,0x000),
    DN(D_5,4,0x000),
    DN(___,0,0x000),
    DN(C_5,4,0x000),
    DN(___,0,0x000),
    DN(D_5,4,0x000),
    DN(___,0,0x000),
    DN(E_5,4,0x000),
    DN(___,0,0x000),
    DN(A_5,4,0x000),
    DN(___,0,0x000),
    DN(E_5,4,0x000),
    DN(___,0,0x000),
    DN(D_5,4,0x000),
    DN(___,0,0x000),
    DN(C_5,4,0x000),
    DN(___,0,0x000),
    DN(D_5,4,0x000),
    DN(___,0,0x000),
    DN(E_5,4,0x000),
    DN(___,0,0x000),
    DN(C_6,4,0x000),
    DN(___,0,0x000),
    DN(A_5,4,0x000),
    DN(___,0,0x000),
    DN(G_5,4,0x000),
    DN(___,0,0x000),
    DN(F_5,4,0x000),
    DN(___,0,0x000),
    DN(G_5,4,0x000),
    DN(___,0,0x000),
    DN(F_5,4,0x000),
    DN(___,0,0x000),
    DN(E_5,4,0x000),
    DN(___,0,0x000),
    DN(D_5,4,0x000),
    DN(___,0,0x000),
    DN(G_4,4,0x000),
    DN(___,0,0x000),
    DN(B_4,4,0x000),
    DN(___,0,0x000),
    DN(C_5,4,0x000),
    DN(___,0,0x000),
    DN(D_5,4,0x000),
    DN(___,0,0x000),
    DN(E_5,4,0x000),
    DN(F_5,4,0x000),
    DN(G_5,4,0x000),
    DN(___,0,0x000),
};
static const unsigned char P25[] = {
    DN(___,0,0x000),
    DN(G_5,5,0x000),
    DN(___,0,0x000),
    DN(E_5,5,0x000),
    DN(___,0,0x000),
    DN(D_5,5,0x000),
    DN(___,0,0x000),
    DN(C_5,5,0x000),
    DN(___,0,0x000),
    DN(D_5,5,0x000),
    DN(___,0,0x000),
    DN(E_5,5,0x000),
    DN(___,0,0x000),
    DN(G_5,5,0x000),
    DN(___,0,0x000),
    DN(E_5,5,0x000),
    DN(___,0,0x000),
    DN(D_5,5,0x000),
    DN(___,0,0x000),
    DN(C_5,5,0x000),
    DN(___,0,0x000),
    DN(D_5,5,0x000),
    DN(___,0,0x000),
    DN(E_5,5,0x000),
    DN(___,0,0x000),
    DN(A_5,5,0x000),
    DN(___,0,0x000),
    DN(E_5,5,0x000),
    DN(___,0,0x000),
    DN(D_5,5,0x000),
    DN(___,0,0x000),
    DN(C_5,5,0x000),
    DN(___,0,0x000),
    DN(D_5,5,0x000),
    DN(___,0,0x000),
    DN(E_5,5,0x000),
    DN(___,0,0x000),
    DN(C_6,5,0x000),
    DN(___,0,0x000),
    DN(A_5,5,0x000),
    DN(___,0,0x000),
    DN(G_5,5,0x000),
    DN(___,0,0x000),
    DN(F_5,5,0x000),
    DN(___,0,0x000),
    DN(G_5,5,0x000),
    DN(___,0,0x000),
    DN(F_5,5,0x000),
    DN(___,0,0x000),
    DN(E_5,5,0x000),
    DN(___,0,0x000),
    DN(D_5,5,0x000),
    DN(___,0,0x000),
    DN(G_4,5,0x000),
    DN(___,0,0x000),
    DN(B_4,5,0x000),
    DN(___,0,0x000),
    DN(C_5,5,0x000),
    DN(___,0,0x000),
    DN(D_5,5,0x000),
    DN(___,0,0x000),
    DN(E_5,5,0x000),
    DN(F_5,5,0x000),
    DN(G_5,5,0x000),
};
static const unsigned char P26[] = {
    DN(E_6,5,0x000),
    DN(___,0,0x000),
    DN(G_6,5,0x000),
    DN(___,0,0x000),
    DN(E_6,5,0x000),
    DN(___,0,0x000),
    DN(D_6,5,0x000),
    DN(___,0,0x000),
    DN(C_6,5,0x000),
    DN(___,0,0x000),
    DN(D_6,5,0x000),
    DN(___,0,0x000),
    DN(E_6,5,0x000),
    DN(___,0,0x000),
    DN(G_6,5,0x000),
    DN(___,0,0x000),
    DN(E_6,5,0x000),
    DN(___,0,0x000),
    DN(D_6,5,0x000),
    DN(___,0,0x000),
    DN(C_6,5,0x000),
    DN(___,0,0x000),
    DN(D_6,5,0x000),
    DN(___,0,0x000),
    DN(E_6,5,0x000),
    DN(___,0,0x000),
    DN(A_6,5,0x000),
    DN(___,0,0x000),
    DN(E_6,5,0x000),
    DN(___,0,0x000),
    DN(D_6,5,0x000),
    DN(___,0,0x000),
    DN(C_6,5,0x000),
    DN(___,0,0x000),
    DN(D_6,5,0x000),
    DN(___,0,0x000),
    DN(E_6,5,0x000),
    DN(___,0,0x000),
    DN(C_7,5,0x000),
    DN(___,0,0x000),
    DN(A_6,5,0x000),
    DN(___,0,0x000),
    DN(G_6,5,0x000),
    DN(___,0,0x000),
    DN(F_6,5,0x000),
    DN(___,0,0x000),
    DN(G_6,5,0x000),
    DN(___,0,0x000),
    DN(F_6,5,0x000),
    DN(___,0,0x000),
    DN(E_6,5,0x000),
    DN(___,0,0x000),
    DN(D_6,5,0x000),
    DN(___,0,0x000),
    DN(G_5,5,0x000),
    DN(___,0,0x000),
    DN(B_5,5,0x000),
    DN(___,0,0x000),
    DN(C_6,5,0x000),
    DN(___,0,0x000),
    DN(D_6,5,0x000),
    DN(___,0,0x000),
    DN(E_6,5,0x000),
    DN(G_6,5,0x000),
};
static const unsigned char P28[] = {
    DN(___,0,0x000),
    DN(___,0,0x000),
    DN(___,0,0x000),
    DN(___,0,0x000),
    DN(___,0,0x000),
    DN(___,0,0x000),
    DN(___,0,0x000),
    DN(___,0,0x000),
    DN(___,0,0x000),
    DN(___,0,0x000),
    DN(___,0,0x000),
    DN(___,0,0x000),
    DN(B_4,6,0x000),
    DN(___,0,0x000),
    DN(___,0,0x000),
    DN(___,0,0x000),
    DN(___,0,0x000),
    DN(___,0,0x000),
    DN(___,0,0x000),
    DN(___,0,0x000),
    DN(___,0,0x000),
    DN(___,0,0x000),
    DN(___,0,0x000),
    DN(___,0,0x000),
    DN(___,0,0x000),
    DN(___,0,0x000),
    DN(___,0,0x000),
    DN(___,0,0x000),
    DN(___,0,0x000),
    DN(___,0,0x000),
    DN(___,0,0x000),
    DN(___,0,0x000),
    DN(___,0,0x000),
    DN(___,0,0x000),
    DN(___,0,0x000),
    DN(___,0,0x000),
    DN(___,0,0x000),
    DN(___,0,0x000),
    DN(___,0,0x000),
    DN(___,0,0x000),
    DN(___,0,0x000),
    DN(___,0,0x000),
    DN(___,0,0x000),
    DN(___,0,0x000),
    DN(___,0,0x000),
    DN(___,0,0x000),
    DN(___,0,0x000),
    DN(___,0,0x000),
    DN(___,0,0x000),
    DN(___,0,0x000),
    DN(___,0,0x000),
    DN(___,0,0x000),
    DN(___,0,0x000),
    DN(___,0,0x000),
    DN(___,0,0x000),
    DN(___,0,0x000),
    DN(___,0,0x000),
    DN(___,0,0x000),
    DN(___,0,0x000),
    DN(___,0,0x000),
    DN(___,0,0x000),
    DN(___,0,0x000),
    DN(___,0,0x000),
    DN(___,0,0x000),
};
static const unsigned char P29[] = {
    DN(___,0,0x000),
    DN(___,0,0x000),
    DN(___,0,0x000),
    DN(___,0,0x000),
    DN(___,0,0x000),
    DN(___,0,0x000),
    DN(___,0,0x000),
    DN(___,0,0x000),
    DN(___,0,0x000),
    DN(___,0,0x000),
    DN(___,0,0x000),
    DN(___,0,0x000),
    DN(G_5,6,0x000),
    DN(___,0,0x000),
    DN(___,0,0x000),
    DN(___,0,0x000),
    DN(___,0,0x000),
    DN(___,0,0x000),
    DN(___,0,0x000),
    DN(___,0,0x000),
    DN(___,0,0x000),
    DN(___,0,0x000),
    DN(___,0,0x000),
    DN(___,0,0x000),
    DN(___,0,0x000),
    DN(___,0,0x000),
    DN(___,0,0x000),
    DN(___,0,0x000),
    DN(___,0,0x000),
    DN(___,0,0x000),
    DN(___,0,0x000),
    DN(___,0,0x000),
    DN(___,0,0x000),
    DN(___,0,0x000),
    DN(___,0,0x000),
    DN(___,0,0x000),
    DN(___,0,0x000),
    DN(___,0,0x000),
    DN(___,0,0x000),
    DN(___,0,0x000),
    DN(___,0,0x000),
    DN(___,0,0x000),
    DN(___,0,0x000),
    DN(___,0,0x000),
    DN(___,0,0x000),
    DN(___,0,0x000),
    DN(___,0,0x000),
    DN(___,0,0x000),
    DN(___,0,0x000),
    DN(___,0,0x000),
    DN(___,0,0x000),
    DN(___,0,0x000),
    DN(___,0,0x000),
    DN(___,0,0x000),
    DN(___,0,0x000),
    DN(___,0,0x000),
    DN(___,0,0x000),
    DN(___,0,0x000),
    DN(___,0,0x000),
    DN(___,0,0x000),
    DN(___,0,0x000),
    DN(___,0,0x000),
    DN(___,0,0x000),
    DN(___,0,0x000),
};
static const unsigned char P30[] = {
    DN(___,0,0x000),
    DN(___,0,0x000),
    DN(___,0,0x000),
    DN(___,0,0x000),
    DN(___,0,0x000),
    DN(___,0,0x000),
    DN(___,0,0x000),
    DN(___,0,0x000),
    DN(___,0,0x000),
    DN(___,0,0x000),
    DN(___,0,0x000),
    DN(___,0,0x000),
    DN(___,0,0x000),
    DN(___,0,0x000),
    DN(___,0,0x000),
    DN(___,0,0x000),
    DN(___,0,0x000),
    DN(___,0,0x000),
    DN(___,0,0x000),
    DN(___,0,0x000),
    DN(___,0,0x000),
    DN(___,0,0x000),
    DN(___,0,0x000),
    DN(___,0,0x000),
    DN(___,0,0x000),
    DN(___,0,0x000),
    DN(___,0,0x000),
    DN(___,0,0x000),
    DN(___,0,0x000),
    DN(___,0,0x000),
    DN(___,0,0x000),
    DN(___,0,0x000),
    DN(___,0,0x000),
    DN(___,0,0x000),
    DN(___,0,0x000),
    DN(___,0,0x000),
    DN(___,0,0x000),
    DN(___,0,0x000),
    DN(___,0,0x000),
    DN(___,0,0x000),
    DN(___,0,0x000),
    DN(___,0,0x000),
    DN(___,0,0x000),
    DN(___,0,0x000),
    DN(___,0,0x000),
    DN(___,0,0x000),
    DN(___,0,0x000),
    DN(___,0,0x000),
    DN(___,0,0x000),
    DN(___,0,0x000),
    DN(___,0,0x000),
    DN(___,0,0x000),
    DN(___,0,0x000),
    DN(___,0,0x000),
    DN(___,0,0x000),
    DN(___,0,0x000),
    DN(___,0,0x000),
    DN(___,0,0x000),
    DN(___,0,0x000),
    DN(___,0,0x000),
    DN(___,0,0x000),
    DN(___,0,0x000),
    DN(___,0,0x000),
    DN(___,0,0x000),
};
static const unsigned char P31[] = {
    DN(___,0,0x000),
    DN(___,0,0x000),
    DN(___,0,0x000),
    DN(___,0,0x000),
    DN(D_8,3,0xF08),
    DN(___,0,0x000),
    DN(D_8,1,0x000),
    DN(___,0,0x000),
    DN(D_8,2,0x000),
    DN(___,0,0x000),
    DN(D_8,1,0x000),
    DN(___,0,0x000),
    DN(D_8,1,0x000),
    DN(___,0,0x000),
    DN(D_8,2,0x000),
    DN(___,0,0x000),
    DN(D_8,1,0x000),
    DN(___,0,0x000),
    DN(D_8,1,0x000),
    DN(___,0,0xD01),
    DN(___,0,0x000),
    DN(___,0,0x000),
    DN(___,0,0x000),
    DN(___,0,0x000),
    DN(___,0,0x000),
    DN(___,0,0x000),
    DN(___,0,0x000),
    DN(___,0,0x000),
    DN(___,0,0x000),
    DN(___,0,0x000),
    DN(___,0,0x000),
    DN(___,0,0x000),
    DN(___,0,0x000),
    DN(___,0,0x000),
    DN(___,0,0x000),
    DN(___,0,0x000),
    DN(___,0,0x000),
    DN(___,0,0x000),
    DN(___,0,0x000),
    DN(___,0,0x000),
    DN(___,0,0x000),
    DN(___,0,0x000),
    DN(___,0,0x000),
    DN(___,0,0x000),
    DN(___,0,0x000),
    DN(___,0,0x000),
    DN(___,0,0x000),
    DN(___,0,0x000),
    DN(___,0,0x000),
    DN(___,0,0x000),
    DN(___,0,0x000),
    DN(___,0,0x000),
    DN(___,0,0x000),
    DN(___,0,0x000),
    DN(___,0,0x000),
    DN(___,0,0x000),
    DN(___,0,0x000),
    DN(___,0,0x000),
    DN(___,0,0x000),
    DN(___,0,0x000),
    DN(___,0,0x000),
    DN(___,0,0x000),
    DN(___,0,0x000),
    DN(___,0,0x000),
};
static const unsigned char P32[] = {
    DN(G_5,7,0x000),
    DN(___,0,0x000),
    DN(___,0,0x000),
    DN(___,0,0x000),
    DN(___,0,0x000),
    DN(___,0,0x000),
    DN(___,0,0x000),
    DN(___,0,0x000),
    DN(___,0,0x000),
    DN(___,0,0x000),
    DN(___,0,0x000),
    DN(___,0,0x000),
    DN(B_4,7,0x000),
    DN(___,0,0x000),
    DN(C_5,7,0x000),
    DN(___,0,0x000),
    DN(E_5,7,0x000),
    DN(___,0,0x000),
    DN(___,0,0x000),
    DN(___,0,0x000),
    DN(___,0,0x000),
    DN(___,0,0x000),
    DN(___,0,0x000),
    DN(___,0,0x000),
    DN(D_5,7,0x000),
    DN(___,0,0x000),
    DN(___,0,0x000),
    DN(___,0,0x000),
    DN(C_5,7,0x000),
    DN(___,0,0x000),
    DN(C_5,8,0x000),
    DN(Cs5,8,0x000),
    DN(D_5,7,0x000),
    DN(___,0,0x000),
    DN(___,0,0x000),
    DN(___,0,0x000),
    DN(C_5,7,0x000),
    DN(___,0,0x000),
    DN(A_4,7,0x000),
    DN(___,0,0x000),
    DN(___,0,0x000),
    DN(___,0,0x000),
    DN(B_4,7,0x000),
    DN(___,0,0x000),
    DN(C_5,7,0x000),
    DN(___,0,0x000),
    DN(E_5,7,0x000),
    DN(___,0,0x000),
    DN(___,0,0x000),
    DN(___,0,0x000),
    DN(___,0,0x000),
    DN(___,0,0x000),
    DN(___,0,0x000),
    DN(___,0,0x000),
    DN(C_5,8,0x000),
    DN(Cs5,8,0x000),
    DN(D_5,7,0x000),
    DN(___,0,0x000),
    DN(C_5,7,0x000),
    DN(___,0,0x000),
    DN(A_4,7,0x000),
    DN(___,0,0x000),
    DN(G_4,7,0x000),
    DN(___,0,0x000),
};
static const unsigned char P36[] = {
    DN(C_5,7,0x000),
    DN(___,0,0x000),
    DN(D_5,7,0x000),
    DN(___,0,0x000),
    DN(E_5,7,0x000),
    DN(___,0,0x000),
    DN(F_5,8,0x000),
    DN(G_5,7,0x000),
    DN(___,0,0x000),
    DN(___,0,0x000),
    DN(___,0,0x000),
    DN(___,0,0x000),
    DN(E_5,7,0x000),
    DN(___,0,0x000),
    DN(G_5,8,0x000),
    DN(A_5,7,0x000),
    DN(___,0,0x000),
    DN(___,0,0x000),
    DN(___,0,0x000),
    DN(___,0,0x000),
    DN(G_5,7,0x000),
    DN(___,0,0x000),
    DN(B_5,8,0x000),
    DN(C_6,7,0x000),
    DN(___,0,0x000),
    DN(___,0,0x000),
    DN(___,0,0x000),
    DN(___,0,0x000),
    DN(G_5,7,0x000),
    DN(___,0,0x000),
    DN(___,0,0x000),
    DN(___,0,0x000),
    DN(D_5,7,0x000),
    DN(___,0,0x000),
    DN(___,0,0x000),
    DN(___,0,0x000),
    DN(C_5,7,0x000),
    DN(___,0,0x000),
    DN(A_4,7,0x000),
    DN(___,0,0x000),
    DN(___,0,0x000),
    DN(___,0,0x000),
    DN(B_4,7,0x000),
    DN(___,0,0x000),
    DN(C_5,7,0x000),
    DN(___,0,0x000),
    DN(E_5,7,0x000),
    DN(___,0,0x000),
    DN(___,0,0x000),
    DN(___,0,0x000),
    DN(___,0,0x000),
    DN(___,0,0x000),
    DN(___,0,0x000),
    DN(___,0,0x000),
    DN(C_5,8,0x000),
    DN(Cs5,8,0x000),
    DN(D_5,7,0x000),
    DN(___,0,0x000),
    DN(C_5,7,0x000),
    DN(___,0,0x000),
    DN(A_4,7,0x000),
    DN(___,0,0x000),
    DN(G_4,7,0x000),
    DN(___,0,0x000),
};
static const unsigned char P40[] = {
    DN(A_4,7,0x000),
    DN(___,0,0x000),
    DN(___,0,0x000),
    DN(___,0,0x000),
    DN(E_5,2,0x000),
    DN(___,0,0x000),
    DN(G_4,7,0x000),
    DN(___,0,0x000),
    DN(A_4,7,0x000),
    DN(___,0,0x000),
    DN(B_4,7,0x000),
    DN(___,0,0x000),
    DN(C_5,7,0x000),
    DN(___,0,0x000),
    DN(E_5,7,0x000),
    DN(___,0,0x000),
    DN(___,0,0x000),
    DN(___,0,0x000),
    DN(___,0,0x000),
    DN(___,0,0x000),
    DN(E_5,2,0x000),
    DN(___,0,0x000),
    DN(___,0,0x000),
    DN(___,0,0x000),
    DN(D_5,7,0x000),
    DN(___,0,0x000),
    DN(___,0,0x000),
    DN(___,0,0x000),
    DN(C_5,7,0x000),
    DN(___,0,0x000),
    DN(___,0,0x000),
    DN(___,0,0x000),
    DN(B_4,7,0x000),
    DN(___,0,0x000),
    DN(___,0,0x000),
    DN(___,0,0x000),
    DN(___,0,0x000),
    DN(___,0,0x000),
    DN(G_4,7,0x000),
    DN(___,0,0x000),
    DN(A_4,7,0x000),
    DN(___,0,0x000),
    DN(As4,7,0x000),
    DN(___,0,0x000),
    DN(B_4,7,0x000),
    DN(___,0,0x000),
    DN(D_5,7,0x000),
    DN(___,0,0x000),
    DN(___,0,0x000),
    DN(___,0,0x000),
    DN(___,0,0x000),
    DN(___,0,0x000),
    DN(D_5,2,0x000),
    DN(___,0,0x000),
    DN(___,0,0x000),
    DN(___,0,0x000),
    DN(C_5,2,0x000),
    DN(___,0,0x000),
    DN(___,0,0x000),
    DN(___,0,0x000),
    DN(B_4,2,0x000),
    DN(___,0,0x000),
    DN(___,0,0x000),
    DN(___,0,0x000),
};
static const unsigned char P44[] = {
    DN(E_5,7,0x000),
    DN(___,0,0x000),
    DN(___,0,0x000),
    DN(___,0,0x000),
    DN(D_5,7,0x000),
    DN(___,0,0x000),
    DN(___,0,0x000),
    DN(___,0,0x000),
    DN(D_5,7,0x000),
    DN(___,0,0x000),
    DN(___,0,0x000),
    DN(___,0,0x000),
    DN(C_5,7,0x000),
    DN(___,0,0x000),
    DN(C_5,8,0x000),
    DN(Cs5,8,0x000),
    DN(D_5,7,0x000),
    DN(___,0,0x000),
    DN(___,0,0x000),
    DN(___,0,0x000),
    DN(E_5,7,0x000),
    DN(___,0,0x000),
    DN(___,0,0x000),
    DN(___,0,0x000),
    DN(G_5,7,0x000),
    DN(___,0,0x000),
    DN(___,0,0x000),
    DN(___,0,0x000),
    DN(Ds5,8,0x000),
    DN(E_5,7,0x000),
    DN(___,0,0x000),
    DN(___,0,0x000),
    DN(B_4,7,0x000),
    DN(___,0,0x000),
    DN(___,0,0x000),
    DN(___,0,0x000),
    DN(___,0,0x000),
    DN(___,0,0x000),
    DN(___,0,0x000),
    DN(___,0,0x000),
    DN(C_5,7,0x000),
    DN(___,0,0x000),
    DN(___,0,0x000),
    DN(___,0,0x000),
    DN(___,0,0x000),
    DN(___,0,0x000),
    DN(___,0,0x000),
    DN(___,0,0x000),
    DN(D_5,7,0x000),
    DN(___,0,0x000),
    DN(___,0,0x000),
    DN(___,0,0x000),
    DN(___,0,0x000),
    DN(___,0,0x000),
    DN(___,0,0x000),
    DN(___,0,0x000),
    DN(G_4,3,0x000),
    DN(___,0,0x000),
    DN(A_4,3,0x000),
    DN(___,0,0x000),
    DN(B_4,3,0x000),
    DN(___,0,0x000),
    DN(C_5,3,0x000),
    DN(___,0,0x000),
};
static const unsigned char P47[] = {
    DN(D_8,3,0xF08),
    DN(___,0,0x000),
    DN(D_8,1,0x000),
    DN(___,0,0x000),
    DN(D_8,2,0x000),
    DN(___,0,0x000),
    DN(D_8,1,0x000),
    DN(___,0,0x000),
    DN(D_8,1,0x000),
    DN(___,0,0x000),
    DN(D_8,2,0x000),
    DN(___,0,0x000),
    DN(D_8,1,0x000),
    DN(___,0,0x000),
    DN(D_8,1,0x000),
    DN(___,0,0x000),
    DN(D_8,2,0x000),
    DN(___,0,0x000),
    DN(D_8,1,0x000),
    DN(___,0,0x000),
    DN(D_8,1,0x000),
    DN(___,0,0x000),
    DN(Ds8,3,0x000),
    DN(___,0,0x000),
    DN(D_8,1,0x000),
    DN(___,0,0x000),
    DN(D_8,1,0x000),
    DN(___,0,0x000),
    DN(Ds8,3,0x000),
    DN(___,0,0x000),
    DN(Ds8,3,0x000),
    DN(___,0,0x000),
    DN(D_8,3,0x000),
    DN(___,0,0x000),
    DN(D_8,1,0x000),
    DN(___,0,0x000),
    DN(D_8,2,0x000),
    DN(___,0,0x000),
    DN(D_8,1,0x000),
    DN(___,0,0x000),
    DN(D_8,1,0x000),
    DN(___,0,0x000),
    DN(D_8,2,0x000),
    DN(___,0,0x000),
    DN(D_8,1,0x000),
    DN(___,0,0x000),
    DN(D_8,1,0x000),
    DN(___,0,0x000),
    DN(D_8,2,0x000),
    DN(___,0,0x000),
    DN(D_8,1,0x000),
    DN(___,0,0x000),
    DN(D_8,1,0x000),
    DN(___,0,0x000),
    DN(D_8,2,0x000),
    DN(___,0,0x000),
    DN(D_8,1,0x000),
    DN(___,0,0x000),
    DN(D_8,1,0x000),
    DN(___,0,0x000),
    DN(Ds8,3,0x000),
    DN(___,0,0x000),
    DN(Ds8,3,0x000),
    DN(___,0,0xB05),
};

static const unsigned char* const order1[] = {P24,P28,P0,P0,P8,P12,P16,P20,P32,P36,P40,P44};
static const unsigned char* const order2[] = {P25,P29,P1,P1,P1,P1,P17,P17,P1,P1,P17,P17};
static const unsigned char* const order3[] = {P26,P30,P2,P2,P2,P2,P18,P18,P2,P2,P18,P18};
static const unsigned char* const order4[] = {P3,P31,P7,P7,P11,P11,P19,P19,P7,P7,P19,P47};

static const hUGEDutyInstr_t duty_instruments[] = {
    {8,0,179,0,128},
    {8,0,71,0,128},
    {8,128,199,0,128},
    {8,128,177,0,128},
    {8,128,83,0,128},
    {8,0,47,0,128},
    {8,64,124,0,128},
    {8,64,247,0,128},
    {8,128,240,0,128},
    {8,128,240,0,128},
    {8,128,240,0,128},
    {8,128,240,0,128},
    {8,128,240,0,128},
    {8,128,240,0,128},
    {8,128,240,0,128},
};
static const hUGEWaveInstr_t wave_instruments[] = {
    {0,32,6,0,128},
    {0,32,0,0,128},
    {0,32,2,0,128},
    {0,32,3,0,128},
    {0,96,2,0,128},
    {0,32,5,0,128},
    {0,32,6,0,128},
    {0,32,7,0,128},
    {0,32,8,0,128},
    {0,32,9,0,128},
    {0,32,10,0,128},
    {0,32,11,0,128},
    {0,32,12,0,128},
    {0,32,13,0,128},
    {0,32,14,0,128},
};
static const hUGENoiseInstr_t noise_instruments[] = {
    {99,0,123,0,0},
    {129,0,128,0,0},
    {81,0,0,0,0},
    {240,0,0,0,0},
    {240,0,0,0,0},
    {240,0,0,0,0},
    {240,0,0,0,0},
    {240,0,0,0,0},
    {240,0,0,0,0},
    {240,0,0,0,0},
    {240,0,0,0,0},
    {240,0,0,0,0},
    {240,0,0,0,0},
    {240,0,0,0,0},
    {240,0,0,0,0},
};

static const unsigned char waves[] = {
    0,0,0,0,0,0,0,0,0,119,119,119,119,119,119,119,
    0,0,0,0,255,255,255,255,255,255,255,255,255,255,255,255,
    0,0,0,0,0,0,0,6,102,102,102,102,102,102,102,102,
    0,0,0,0,0,0,0,0,0,0,0,0,255,255,255,255,
    0,1,18,35,52,69,86,103,120,137,154,171,188,205,222,239,
    254,220,186,152,118,84,50,16,18,52,86,120,154,188,222,255,
    122,205,219,165,33,19,104,189,220,215,65,1,71,156,220,232,
    15,15,15,15,15,15,15,15,15,15,15,15,15,15,15,15,
    254,252,250,248,246,244,242,240,242,244,246,248,250,252,254,255,
    254,221,204,187,170,153,136,119,138,189,241,36,87,138,189,238,
    132,17,97,237,87,71,90,173,206,163,23,121,221,32,3,71,
    218,211,40,173,37,233,83,163,44,10,41,123,14,211,160,107,
    18,120,105,155,11,90,228,131,103,96,151,201,23,190,29,182,
    155,8,5,168,56,224,210,5,120,236,32,206,0,209,180,185,
    90,221,227,138,138,128,124,45,65,94,81,234,56,51,190,221,
    224,56,232,145,136,144,22,24,216,237,132,157,92,23,165,40,
};

const hUGESong_t music_day = {7, &order_cnt, order1, order2, order3,order4, duty_instruments, wave_instruments, noise_instruments, NULL, waves};
